<?xml version="1.0" encoding="UTF-8"?>
<svg id="Layer_1" data-name="Layer 1" xmlns="http://www.w3.org/2000/svg" viewBox="0 0 112.54 39.96">
  <defs>
    <style>
      .cls-1 {
        fill: #353949;
      }

      .cls-1, .cls-2, .cls-3 {
        stroke-width: 0px;
      }

      .cls-2 {
        fill: #ffc839;
      }

      .cls-3 {
        fill: #fff;
      }
    </style>
  </defs>
  <g>
    <path class="cls-3" d="M25.74,3.16h4.53l2.02,13.91h-2.89l-.28-2.43h-2.22l-.28,2.43h-2.89l2.02-13.91ZM28.76,12.05l-.75-5.98-.75,5.98h1.5Z"/>
    <path class="cls-3" d="M32.98,3.16h7.88v2.83h-4.97v2.71h4.37v2.83h-4.37v2.71h4.97v2.83h-7.88V3.16Z"/>
    <path class="cls-3" d="M41.76,17.07V3.16h3.92c2.93,0,4.04,2.31,4.04,4.31s-.79,3.07-1.74,3.7l2.1,5.9h-3.05l-1.84-5.3h-.61v5.3h-2.83ZM44.59,8.98h.81c1.35,0,1.5-.87,1.5-1.52s-.14-1.52-1.5-1.52h-.81v3.03Z"/>
    <path class="cls-3" d="M58.66,7v6.23c0,2.41-1.44,4.1-3.96,4.1s-3.96-1.7-3.96-4.1v-6.23c0-2.41,1.44-4.1,3.96-4.1s3.96,1.7,3.96,4.1ZM55.83,7.34c0-.59-.06-1.66-1.13-1.66s-1.13,1.07-1.13,1.66v5.54c0,.59.06,1.66,1.13,1.66s1.13-1.07,1.13-1.66v-5.54Z"/>
    <path class="cls-3" d="M59.88,17.07V3.16h3.68c3.25,0,4.25,2.26,4.25,4.37s-.99,4.37-4.25,4.37h-.85v5.18h-2.83ZM62.71,9.1h.77c1.29,0,1.5-.99,1.5-1.58,0-.49-.2-1.58-1.5-1.58h-.77v3.15Z"/>
    <path class="cls-3" d="M76.46,7v6.23c0,2.41-1.44,4.1-3.96,4.1s-3.96-1.7-3.96-4.1v-6.23c0-2.41,1.44-4.1,3.96-4.1s3.96,1.7,3.96,4.1ZM73.63,7.34c0-.59-.06-1.66-1.13-1.66s-1.13,1.07-1.13,1.66v5.54c0,.59.06,1.66,1.13,1.66s1.13-1.07,1.13-1.66v-5.54Z"/>
    <path class="cls-3" d="M77.35,17.07V3.16h3.92c2.93,0,4.04,2.31,4.04,4.31s-.79,3.07-1.74,3.7l2.1,5.9h-3.05l-1.84-5.3h-.61v5.3h-2.83ZM80.18,8.98h.81c1.35,0,1.5-.87,1.5-1.52s-.14-1.52-1.5-1.52h-.81v3.03Z"/>
    <path class="cls-3" d="M86.33,3.16h7.92v2.87h-2.51v11.04h-2.91V6.03h-2.51v-2.87Z"/>
    <path class="cls-3" d="M26.83,31.23c0,.75.34,1.33,1.17,1.33s1.17-.53,1.17-1.19c0-.57,0-1.15-1.46-1.8-2.43-1.07-3.68-2.02-3.68-4.69s1.58-3.98,3.96-3.98,3.96,1.44,3.96,4.1v.79h-2.79v-.79c0-.69-.24-1.35-1.17-1.35s-1.17.63-1.17,1.23.18,1.07,1.7,1.76c1.92.87,3.44,1.8,3.44,4.71,0,2.43-1.09,3.98-3.96,3.98s-3.96-1.48-3.96-4.1v-1.15h2.79v1.15Z"/>
    <path class="cls-3" d="M40.87,25v6.23c0,2.41-1.44,4.1-3.96,4.1s-3.96-1.7-3.96-4.1v-6.23c0-2.41,1.44-4.1,3.96-4.1s3.96,1.7,3.96,4.1ZM38.04,25.34c0-.59-.06-1.66-1.13-1.66s-1.13,1.07-1.13,1.66v5.54c0,.59.06,1.66,1.13,1.66s1.13-1.07,1.13-1.66v-5.54Z"/>
    <path class="cls-3" d="M44.63,31.23c0,.75.34,1.33,1.17,1.33s1.17-.53,1.17-1.19c0-.57,0-1.15-1.46-1.8-2.43-1.07-3.68-2.02-3.68-4.69s1.58-3.98,3.96-3.98,3.96,1.44,3.96,4.1v.79h-2.79v-.79c0-.69-.24-1.35-1.17-1.35s-1.17.63-1.17,1.23.18,1.07,1.7,1.76c1.92.87,3.44,1.8,3.44,4.71,0,2.43-1.09,3.98-3.96,3.98s-3.96-1.48-3.96-4.1v-1.15h2.79v1.15Z"/>
    <path class="cls-3" d="M50.74,21.16h7.93v2.87h-2.51v11.04h-2.91v-11.04h-2.51v-2.87Z"/>
    <path class="cls-3" d="M59.68,21.16h7.88v2.83h-4.97v2.71h4.37v2.83h-4.37v2.71h4.97v2.83h-7.88v-13.91Z"/>
    <path class="cls-3" d="M71.41,21.16l2.22,6.96v-6.96h2.83v13.91h-2.87l-2.22-6.96v6.96h-2.83v-13.91h2.87Z"/>
    <path class="cls-3" d="M85.28,21.16v2.75h-2.39v8.41h2.39v2.75h-7.76v-2.75h2.43v-8.41h-2.43v-2.75h7.76Z"/>
    <path class="cls-3" d="M86.35,35.07v-13.91h3.38c2.83,0,4.04,1.64,4.04,3.88,0,1.94-.93,2.57-1.11,2.69,1.19.75,1.56,2.02,1.56,3.17,0,2.31-1.39,4.17-4.25,4.17h-3.62ZM89.67,26.72c1.23,0,1.35-.93,1.35-1.44s-.12-1.44-1.35-1.44h-.63v2.87h.63ZM89.97,32.38c1.09,0,1.42-.85,1.42-1.52s-.32-1.52-1.42-1.52h-.93v3.03h.93Z"/>
    <path class="cls-3" d="M95.23,21.16h2.95v11h4.97v2.91h-7.92v-13.91Z"/>
    <path class="cls-3" d="M104.17,21.16h7.88v2.83h-4.97v2.71h4.37v2.83h-4.37v2.71h4.97v2.83h-7.88v-13.91Z"/>
  </g>
  <rect class="cls-2" y="19.68" width="16.85" height="16.85" rx="1.76" ry="1.76"/>
  <g>
    <rect class="cls-1" x="6.97" y="31.26" width="5.42" height=".8"/>
    <path class="cls-3" d="M13.3,26.21c-.04-.07-.1-.12-.17-.16,0,0-.86-.3-1.33-.3-.73,0-1.27.28-1.87.64-.22.13-.48.28-.75.44,0,0,0,0,0,0l-2.63-.45s-.09,0-.12.02l-.42.19c-.1.05-.1.19,0,.24l1.74.84s0,.02,0,.02c-.97.58-1.8,1.07-1.8,1.07,0,0-.02.01-.03.02-.34.2-.74.26-1.13.17l-.93-.21s-.1-.01-.14,0c-.17.06-.21.28-.08.4l1.04.96c.16.15.4.19.6.11l.52-.21,2.95-1.24,4.17-1.76c.41-.17.57-.51.38-.78Z"/>
    <path class="cls-3" d="M9.53,28.79l-1.24.52-.23,1.02c-.01.06.03.12.09.12h.12c.17,0,.32-.08.41-.22l.85-1.44Z"/>
  </g>
</svg>