<?xml version="1.0" encoding="UTF-8"?>
<svg id="Sense_fons" xmlns="http://www.w3.org/2000/svg" viewBox="0 0 347.8 47.88">
  <defs>
    <style>
      .cls-1 {
        fill: #004a7f;
      }
    </style>
  </defs>
  <path d="M279.76,47.88c-.23-.12-.47-.24-.7-.24-3.05-.94-4.8-3.99-4.1-7.04.7-2.93,3.51-5.04,6.56-4.69,3.16.35,5.5,3.05,5.27,6.22-.12,2.46-1.76,4.69-4.1,5.39-.23.12-.58.24-.82.35h-2.11Z"/>
  <path class="cls-1" d="M43.24,17.15c-2.92-8.63-10.74-14.23-19.27-14.93l-.93,10.97c4.32.35,8.17,3.15,9.69,7.47,1.99,5.83-1.17,12.13-6.89,14.12-5.84,1.98-12.15-1.17-14.13-6.88-1.99-5.83,1.17-12.13,6.89-14.12l3.15-6.65-6.66-3.85C3.42,7.23-2.77,19.72,1.2,31.38c3.97,11.55,16.47,17.73,28.14,13.88,11.56-3.97,17.75-16.57,13.9-28.12Z"/>
  <g>
    <path d="M65.66,10.97c-10.04,0-16.7,7.12-16.7,17.15,0,10.97,6.07,17.73,18.92,17.73,5.72,0,9.81-1.28,12.03-2.45v-7.58l-.47-.23c-2.92,1.4-5.96,2.45-10.63,2.45-5.84,0-8.88-2.1-9.69-7.12h21.37c1.4-14-5.02-19.95-14.83-19.95h0ZM59.36,24.38c.7-4.43,2.92-6.42,6.42-6.42s5.14,2.1,5.37,6.42h-11.8ZM96.96,37.92c-1.4,0-2.1-.82-2.1-2.45V2.22l-10.39.12v35c0,6.3,3.62,8.28,9.23,8.28,2.34,0,4.32-.47,5.37-.93v-6.88l-.35-.23c-.58.12-.94.35-1.75.35ZM118.1,2.33h-15.3v42.7h15.3c13.66,0,24.29-5.72,24.29-21.12s-10.63-21.58-24.29-21.58ZM117.51,36.52h-3.04V10.97h3.04c7.71,0,12.96,3.62,12.96,12.95s-5.25,12.6-12.96,12.6ZM146.36,11.78h10.39v33.37h-10.39V11.78ZM146.36,0h10.39v8.4h-10.39V0ZM183.49,14.82c-2.1-2.33-4.9-3.85-8.99-3.85-8.18,0-14.25,5.95-14.25,17.73s5.61,17.15,13.9,17.15c4.55,0,7.59-1.75,9.93-4.78l.93,3.97h8.52V11.78h-9.58l-.47,3.03ZM183.14,35.82c-1.4,1.17-3.27,1.98-5.61,1.98-3.85,0-6.66-2.8-6.66-9.1s2.57-10.03,6.89-10.03c2.34,0,3.97.7,5.49,1.87v15.28h-.12,0ZM208.6,17.5l-.7-5.72h-9.11v33.37h10.39v-21.23c1.99-2.1,4.32-2.68,8.17-2.68,1.05,0,2.1.12,2.92.35l.35-.23v-9.8c-.7-.12-1.63-.23-2.69-.23-4.44-.12-7.59,3.03-9.34,6.18ZM223.66,0h10.39v8.4h-10.39V0ZM223.66,11.78h10.39v33.37h-10.39V11.78ZM255.31,10.97c-10.16,0-17.87,6.53-17.87,17.38s7.59,17.5,17.87,17.5,17.87-6.65,17.87-17.5-7.71-17.38-17.87-17.38ZM255.31,38.27c-4.32,0-7.24-3.27-7.24-9.92s2.92-9.92,7.24-9.92,7.24,3.27,7.24,9.92-2.8,9.92-7.24,9.92ZM305.53,10.97c-10.04,0-16.7,7.12-16.7,17.15,0,10.97,6.07,17.73,18.92,17.73,5.72,0,9.81-1.28,12.03-2.45v-7.58l-.47-.23c-2.92,1.4-5.96,2.45-10.63,2.45-5.84,0-8.88-2.1-9.69-7.12h21.37c1.4-14-5.02-19.95-14.83-19.95h0ZM299.22,24.38c.7-4.43,2.92-6.42,6.42-6.42s5.14,2.1,5.37,6.42h-11.79ZM337.76,24.27l-2.92-.7c-2.22-.58-3.15-1.17-3.15-2.68s.93-2.57,4.09-2.57c3.85,0,7.24.93,9.58,2.22l.35-.23v-7.58c-2.57-1.05-5.84-1.87-10.28-1.87-8.17,0-13.08,4.32-13.08,10.85,0,5.83,3.62,8.87,8.88,10.15l2.92.7c2.92.7,3.85,1.17,3.85,2.8,0,1.75-1.52,2.8-4.79,2.8-3.97,0-7.71-1.28-10.39-3.38l-.35.23v7.82c2.69,1.63,5.96,2.8,11.68,2.8,8.41,0,13.66-4.2,13.66-11.55,0-5.95-3.27-8.17-10.04-9.8h0Z"/>
    <ellipse cx="280.52" cy="41.4" rx="5.96" ry="5.95" transform="translate(-2.01 65.57) rotate(-13.29)"/>
  </g>
</svg>