<svg id="Sense_fons" xmlns="http://www.w3.org/2000/svg" viewBox="0 0 192.41 42.52">
  <defs>
    <style>
      .cls-1 {
        fill: #1a171b;
      }
    </style>
  </defs>
  <path class="cls-1" d="M0,41.48V0h8.63v33.98h20.74v7.41c0,.09-29.38.09-29.38.09ZM44.21,16.61c-2.06,0-3.66.56-4.79,1.78-1.13,1.13-1.88,2.72-2.16,4.79h13.8c-.19-2.16-.84-3.75-2.16-4.88-1.22-1.13-2.82-1.69-4.69-1.69ZM44.21,9.95c2.63,0,5.07.47,7.23,1.41,2.16.94,3.94,2.44,5.26,4.51,1.22,1.78,2.06,3.94,2.44,6.38.19,1.41.28,3.47.28,6.1h-22.34c.09,3.1,1.22,5.26,3.19,6.48,1.22.75,2.72,1.13,4.41,1.13,1.78,0,3.28-.47,4.41-1.41.66-.47,1.22-1.22,1.69-2.06h8.17c-.19,1.78-1.22,3.66-3,5.54-2.72,3-6.57,4.51-11.54,4.51-4.04,0-7.7-1.22-10.79-3.75-3.1-2.53-4.69-6.57-4.69-12.3,0-5.35,1.41-9.39,4.22-12.2,2.91-2.82,6.57-4.32,11.08-4.32ZM72.36,33.41l6.57-22.62h8.63l-11.17,30.69h-8.45l-10.98-30.69h9.01l6.38,22.62ZM104.46,29.56v-3c-.47.28-1.03.56-1.6.75-.56.19-1.22.38-2.16.56l-1.78.38c-1.69.28-2.91.66-3.66,1.13-1.22.75-1.88,1.88-1.88,3.38,0,1.41.38,2.35,1.13,3,.75.56,1.69.94,2.82.94,1.78,0,3.38-.47,4.88-1.5,1.41-1.13,2.25-3,2.25-5.63ZM96.86,23.18l2.72-.38c1.5-.19,2.53-.47,3.19-.75,1.13-.47,1.69-1.22,1.69-2.25,0-1.22-.47-2.16-1.31-2.63-.85-.47-2.16-.75-3.85-.75-1.88,0-3.28.47-4.04,1.41-.56.66-.94,1.6-1.13,2.82h-7.79c.19-2.72.94-4.88,2.25-6.57,2.16-2.72,5.82-4.04,10.98-4.04,3.38,0,6.38.66,9.01,1.97,2.63,1.31,3.94,3.85,3.94,7.51v14.08l.09,3.57c.09,1.03.19,1.78.47,2.16.28.38.66.66,1.22.94v1.22h-8.73c-.28-.66-.38-1.22-.47-1.78-.09-.56-.19-1.13-.19-1.88-1.13,1.22-2.44,2.25-3.85,3.1-1.69,1.03-3.66,1.5-5.91,1.5-2.82,0-5.07-.75-6.95-2.35-1.78-1.6-2.72-3.85-2.72-6.76,0-3.75,1.5-6.48,4.41-8.17,1.41-.94,3.75-1.6,6.95-1.97ZM133.28,10.04c3.19,0,5.73.84,7.79,2.53,2.07,1.69,3,4.41,3,8.26v20.65h-8.26v-18.68c0-1.6-.19-2.82-.66-3.75-.75-1.6-2.25-2.35-4.51-2.35-2.72,0-4.6,1.13-5.54,3.47-.56,1.22-.75,2.82-.75,4.69v16.61h-7.98V10.89h7.79v4.51c1.03-1.6,1.97-2.72,2.91-3.38,1.6-1.31,3.66-1.97,6.19-1.97ZM145.2,16.8v-5.73h4.32V2.53h7.98v8.54h4.97v5.73h-4.97v16.24c0,1.22.19,2.06.47,2.35.28.28,1.31.47,2.91.47h1.6v6.01l-3.75.19c-3.75.09-6.38-.56-7.79-1.97-.94-.94-1.31-2.35-1.31-4.22v-19.05h-4.41ZM177.2,16.61c-2.07,0-3.66.56-4.79,1.78-1.13,1.22-1.88,2.72-2.16,4.79h13.8c-.19-2.16-.84-3.75-2.16-4.88-1.22-1.13-2.82-1.69-4.69-1.69ZM177.2,9.95c2.63,0,5.07.47,7.23,1.41,2.16.94,3.94,2.44,5.26,4.51,1.22,1.78,2.07,3.94,2.44,6.38.19,1.41.28,3.47.28,6.1h-22.34c.09,3.1,1.22,5.26,3.19,6.48,1.22.75,2.72,1.13,4.41,1.13,1.78,0,3.28-.47,4.41-1.41.66-.47,1.22-1.22,1.69-2.06h8.16c-.19,1.78-1.22,3.66-3,5.54-2.72,3-6.57,4.51-11.54,4.51-4.13,0-7.7-1.22-10.79-3.75s-4.69-6.57-4.69-12.3c0-5.35,1.41-9.39,4.22-12.2,2.91-2.82,6.57-4.32,11.07-4.32Z"/>
</svg>